<?xml version="1.0" encoding="utf-8"?>
<!-- Generator: Adobe Illustrator 27.5.0, SVG Export Plug-In . SVG Version: 6.00 Build 0)  -->
<svg version="1.1" xmlns="http://www.w3.org/2000/svg" xmlns:xlink="http://www.w3.org/1999/xlink" x="0px" y="0px"
	 viewBox="0 0 500 500" style="enable-background:new 0 0 500 500;" xml:space="preserve">
<g id="BACKGROUND">
	<g>
		<g>
			<g>
				<rect x="0.248" y="-1.549" style="fill:#FFFFFF;" width="500" height="500"/>
			</g>
		</g>
	</g>
</g>
<g id="OBJECTS">
	<g>
		<linearGradient id="SVGID_1_" gradientUnits="userSpaceOnUse" x1="252.6023" y1="57.2808" x2="257.6649" y2="452.157">
			<stop  offset="0" style="stop-color:#B1FFFF"/>
			<stop  offset="1" style="stop-color:#FFFFFF"/>
		</linearGradient>
		<path style="fill:url(#SVGID_1_);" d="M255.086,460.635L255.086,460.635c-75.694,0-137.056-61.362-137.056-137.056V178.421
			c0-75.694,61.362-137.056,137.056-137.056h0c75.694,0,137.056,61.362,137.056,137.056v145.158
			C392.142,399.273,330.78,460.635,255.086,460.635z"/>
		<g>
			<g>
				<g>
					<g>
						<g>
							<path style="fill:#040D14;" d="M77.021,361.835c-0.728,0.708-14.395,12.413-14.395,12.413s1.89,18.599,13.645,25.689h23.947
								v-4.064c0,0-29.099-4.297-16.33-26.23L77.021,361.835z"/>
							
								<linearGradient id="SVGID_00000103981617649897064260000005065044921291564444_" gradientUnits="userSpaceOnUse" x1="138.8563" y1="262.154" x2="98.8573" y2="340.3339">
								<stop  offset="0" style="stop-color:#0F1C3D"/>
								<stop  offset="1" style="stop-color:#25356D"/>
							</linearGradient>
							<path style="fill:url(#SVGID_00000103981617649897064260000005065044921291564444_);" d="M148.188,236.654l-26.892,4.417
								c-2.715,5.397-10.373,26.909-9.441,43.951c0.762,13.925-4.74,27.468-4.74,27.468c-27.623,16.228-35.003,48.7-35.003,48.7
								c3.338,6.367,4.83,8.826,11.736,12.731c0,0,46.031-37.711,53.463-53.359C144.744,304.912,148.188,236.654,148.188,236.654z"
								/>
							
								<linearGradient id="SVGID_00000061442268941809477590000008160284101844120707_" gradientUnits="userSpaceOnUse" x1="186.3924" y1="139.1064" x2="115.7519" y2="239.671">
								<stop  offset="0" style="stop-color:#EE021C"/>
								<stop  offset="1" style="stop-color:#B4145C"/>
							</linearGradient>
							<path style="fill:url(#SVGID_00000061442268941809477590000008160284101844120707_);" d="M123.287,229.29
								c0,0-1.841-5.83-3.068-11.353c-1.227-5.523,1.534-45.755,1.534-45.755s8.591-19.638,17.797-24.24
								c0,0,22.399,7.671,27.309,13.194c4.909,5.523,6.444,16.876,6.444,16.876l-6.75,51.278H123.287z"/>
							
								<linearGradient id="SVGID_00000175318911803697094480000017567916767161982135_" gradientUnits="userSpaceOnUse" x1="170.342" y1="135.437" x2="144.0438" y2="121.0925">
								<stop  offset="0" style="stop-color:#F8B79B"/>
								<stop  offset="0.9896" style="stop-color:#F8B79B"/>
							</linearGradient>
							<path style="fill:url(#SVGID_00000175318911803697094480000017567916767161982135_);" d="M177.33,133.908l1.914-5.743
								c0,0-1.914-20.898-18.824-20.898c-16.91,0-15.953,14.198-15.953,14.198l0.957,17.069l-1.914,5.424l18.186,11.965l1.755-6.062
								c3.669,2.393,9.093,3.054,9.093,3.054l3.51-12.147c2.552,0.16,3.829-2.074,3.829-2.074L177.33,133.908z"/>
							<path style="fill:#040D14;" d="M143.51,138.14l7.184,2.466c0,0,1.652-1.411,2.105-2.466c0.453-1.055,0.663-7.449,0.663-7.449
								l5.498,0.251c0,0-0.271,1.487,0,2.064s2.337,1.307,3.537,0.956c1.337-0.39,2.892-11.374,2.892-11.374l-22.195,2.969
								c0,0,1.211,8.401,1.141,10.009S143.51,138.14,143.51,138.14z"/>
							<g>
								
									<linearGradient id="SVGID_00000029031671025050202510000014632362825548306055_" gradientUnits="userSpaceOnUse" x1="134.0462" y1="135.5252" x2="170.409" y2="109.4652">
									<stop  offset="0" style="stop-color:#0F1C3D"/>
									<stop  offset="1" style="stop-color:#25356D"/>
								</linearGradient>
								<path style="fill:url(#SVGID_00000029031671025050202510000014632362825548306055_);" d="M143.51,129.123
									c0,0,25.598-3.253,35.182-8.635c0,0-2.56-19.948-25.291-14.018C135.055,111.255,143.51,129.123,143.51,129.123z"/>
								
									<linearGradient id="SVGID_00000160166162154264084040000014076121253870170004_" gradientUnits="userSpaceOnUse" x1="171.6967" y1="126.0104" x2="181.4088" y2="117.3774">
									<stop  offset="0" style="stop-color:#0F1C3D"/>
									<stop  offset="1" style="stop-color:#25356D"/>
								</linearGradient>
								<path style="fill:url(#SVGID_00000160166162154264084040000014076121253870170004_);" d="M188.054,122.422
									c0,0,2.613,9.442-32.052,4.721c0,0,15.67-3.167,22.69-6.656L188.054,122.422z"/>
								
									<linearGradient id="SVGID_00000037688998362072057790000017823325853990038192_" gradientUnits="userSpaceOnUse" x1="169.0447" y1="137.8154" x2="142.7464" y2="123.471">
									<stop  offset="0" style="stop-color:#F8B79B"/>
									<stop  offset="0.9896" style="stop-color:#F8B79B"/>
								</linearGradient>
								<path style="fill:url(#SVGID_00000037688998362072057790000017823325853990038192_);" d="M158.787,129.39
									c0.627,2.502-0.456,4.929-2.419,5.421c-1.963,0.492-4.063-1.137-4.69-3.639c-0.627-2.502,0.456-4.929,2.419-5.421
									S158.16,126.889,158.787,129.39z"/>
							</g>
							
								<linearGradient id="SVGID_00000155853557879612072550000012475473688989308599_" gradientUnits="userSpaceOnUse" x1="170.1273" y1="127.6811" x2="99.4868" y2="228.2458">
								<stop  offset="0" style="stop-color:#EE021C"/>
								<stop  offset="1" style="stop-color:#B4145C"/>
							</linearGradient>
							<path style="fill:url(#SVGID_00000155853557879612072550000012475473688989308599_);" d="M139.549,147.942l2.844-5.897
								l21.058,11.965v8.295C163.451,162.304,145.638,155.913,139.549,147.942z"/>
							<path style="fill:#040D14;" d="M167.559,383.537v16.4h42.622v-4.789c0,0-19.896,1.887-30.058-13.353L167.559,383.537z"/>
							
								<linearGradient id="SVGID_00000148623927390541073010000005186401057672837047_" gradientUnits="userSpaceOnUse" x1="138.4648" y1="356.0903" x2="171.1913" y2="214.2755">
								<stop  offset="0" style="stop-color:#0F1C3D"/>
								<stop  offset="1" style="stop-color:#25356D"/>
							</linearGradient>
							<path style="fill:url(#SVGID_00000148623927390541073010000005186401057672837047_);" d="M185.754,307.795
								c-5.55-16.411-18.897-49.356-18.897-49.356s5.167-18.937,6.444-44.939c1.277-26.001,0-39.021,0-39.021
								c-5.003-1.112-7.512-0.248-11.786,0.521c-1.971-6.798-8.367-20.604-27.973-22.086l-3.377,4.309
								c0,0,19.509-1.09,25.716,19.102c-2.014,0.588-3.234,1.072-3.234,1.072s1.324,18.446-6.347,35.629
								c-7.671,17.183-26.081,12.58-26.081,12.58s-2.464,20.868-2.874,30.38c-0.181,4.191,0.037,8.323,1.041,11.527
								c1.805,5.766,11.831,20.876,24.359,32.467c10.236,9.471,19.586,17.819,19.586,17.819c-9.53,27.265,1.932,66.735,1.932,66.735
								c6.827,2.25,14.155,2.001,21.832,0C186.092,384.535,191.304,324.206,185.754,307.795z"/>
						</g>
						<g>
							<g>
								
									<linearGradient id="SVGID_00000170263102279675696090000009891228370964548285_" gradientUnits="userSpaceOnUse" x1="183.7539" y1="137.253" x2="113.1133" y2="237.8176">
									<stop  offset="0" style="stop-color:#EE021C"/>
									<stop  offset="1" style="stop-color:#B4145C"/>
								</linearGradient>
								<path style="fill:url(#SVGID_00000170263102279675696090000009891228370964548285_);" d="M127.549,188.432l13.197,30.245
									c0,0,14.592-4.551,19.067-10.554l-8.021-34.098c0,0-1.82-9.845-11.951-11.046"/>
								<g>
									<path style="fill:#4D0628;" d="M127.55,188.432c1.223,2.466,2.408,4.95,3.588,7.435c1.181,2.485,2.378,4.963,3.528,7.461
										l3.461,7.491l3.416,7.51l-1.054-0.481c3.418-1.156,6.807-2.566,10.031-4.18c1.615-0.808,3.189-1.691,4.647-2.702
										c1.454-1.003,2.841-2.126,3.848-3.439l-0.171,0.823c-1.982-8.515-3.938-17.036-5.784-25.579l-1.378-6.408
										c-0.236-1.056-0.427-2.173-0.684-3.152c-0.286-1.011-0.677-2-1.155-2.946c-0.963-1.883-2.316-3.593-4.044-4.863
										c-1.739-1.252-3.804-2.051-5.959-2.425c2.178,0.166,4.36,0.797,6.25,1.996c1.885,1.199,3.439,2.903,4.593,4.832
										c0.576,0.969,1.028,2.005,1.394,3.078c0.348,1.12,0.57,2.151,0.863,3.214l1.622,6.349
										c2.156,8.466,4.201,16.953,6.22,25.448c0.071,0.295-0.004,0.598-0.171,0.824c-1.228,1.625-2.776,2.799-4.336,3.875
										c-1.571,1.071-3.217,1.978-4.893,2.802c-1.672,0.835-3.381,1.578-5.113,2.25c-1.736,0.676-3.469,1.302-5.265,1.86
										l-0.014,0.004c-0.423,0.131-0.872-0.086-1.04-0.486l-3.183-7.612l-3.138-7.632c-1.05-2.542-2.051-5.105-3.07-7.661
										C129.541,193.564,128.526,191.007,127.55,188.432z"/>
								</g>
								
									<linearGradient id="SVGID_00000009573826170610471480000015802451700102436534_" gradientUnits="userSpaceOnUse" x1="173.2154" y1="226.4053" x2="149.3079" y2="198.314">
									<stop  offset="0" style="stop-color:#F8B79B"/>
									<stop  offset="0.9896" style="stop-color:#F8B79B"/>
								</linearGradient>
								<path style="fill:url(#SVGID_00000009573826170610471480000015802451700102436534_);" d="M141.565,222.961l0,3.923
									l9.935,2.61l6.974,4.754l31.937,1.489l7.924,8.047h12.247l1.043,4.44c0,0,5.68-2.396,5.68-4.44s-6.003-11.169-7.684-11.889
									c-1.681-0.72-9.845-0.961-9.845-0.961s-20.901-14.007-38.199-17.434C155.722,217.275,147.932,221.218,141.565,222.961z"/>
								<polygon style="fill:#040D14;" points="202.385,243.785 202.385,248.224 206.494,248.224 282.918,340.28 282.918,347.95 
									288.123,349.045 288.123,339.732 210.582,243.785 								"/>
								<g>
									<path style="fill:#040D14;" d="M219.191,271.421l-10.685-12.449l5.811-5.3l10.68,12.865L219.191,271.421z M211.288,259.142
										l8.132,9.475l2.769-2.331l-8.072-9.723L211.288,259.142z"/>
								</g>
								<path style="fill:#040D14;" d="M296.645,352.298c0,0-1.369-8.721,1.365-10.646c2.734-1.925,46.829,8.062,48.863,10.646
									c2.034,2.584,2.072,13.217,2.072,13.217L296.645,352.298z"/>
								
									<linearGradient id="SVGID_00000065066000065568614400000017511191448443754115_" gradientUnits="userSpaceOnUse" x1="261.004" y1="367.9535" x2="216.1259" y2="352.4188">
									<stop  offset="0" style="stop-color:#B44414"/>
									<stop  offset="1" style="stop-color:#EE5402"/>
								</linearGradient>
								<path style="fill:url(#SVGID_00000065066000065568614400000017511191448443754115_);" d="M281.453,352.631
									c0,0-55.367-25.046-61.038-22.154c-5.67,2.892-15,38.673-11.476,44.092c3.524,5.419,62.665,10.049,62.665,10.049
									L281.453,352.631z"/>
								<g style="opacity:0.2;">
									<path style="fill:#0F1C3D;" d="M215.662,350.358c-1.416-3.517,3.494-17.352,7.714-17.352s46.617,17.176,46.617,17.176
										l-1.276,10.376C268.717,360.557,217.984,356.123,215.662,350.358z"/>
								</g>
								
									<linearGradient id="SVGID_00000169527869679408521730000007960116308687545990_" gradientUnits="userSpaceOnUse" x1="336.643" y1="356.6545" x2="342.6843" y2="336.8046">
									<stop  offset="0" style="stop-color:#0F1C3D"/>
									<stop  offset="1" style="stop-color:#25356D"/>
								</linearGradient>
								<path style="fill:url(#SVGID_00000169527869679408521730000007960116308687545990_);" d="M317.8,349.045
									c-1.072-2.052,1.515-9.791,3.958-11.215s30.14,7.553,32.484,11.215s1.365,18.539,1.365,18.539l-20.746-2.593l1.843-9.964
									C336.704,355.028,318.872,351.098,317.8,349.045z"/>
								
									<linearGradient id="SVGID_00000111879888626871242990000008143732098546443167_" gradientUnits="userSpaceOnUse" x1="323.2434" y1="336.8329" x2="316.3391" y2="392.9305">
									<stop  offset="0" style="stop-color:#EE021C"/>
									<stop  offset="1" style="stop-color:#B4145C"/>
								</linearGradient>
								<path style="fill:url(#SVGID_00000111879888626871242990000008143732098546443167_);" d="M273.717,349.343l-4.968,33.477
									c-0.26,1.753,1.098,3.327,2.87,3.327h91.822c1.945,0,3.339-1.876,2.778-3.738l-4.065-13.487
									c-0.506-1.677-1.85-2.969-3.547-3.407l-78.682-20.289C277.044,344.483,274.153,346.4,273.717,349.343z"/>
								<path style="opacity:0.33;fill:#000E20;" d="M302.268,375.757c0,0-2.286-12.219,0-13.709
									c2.285-1.49,29.888,4.118,31.903,6.397c2.015,2.278,1.586,9.223,1.586,9.223L302.268,375.757z"/>
								
									<linearGradient id="SVGID_00000168091186315534030480000013015941202403656341_" gradientUnits="userSpaceOnUse" x1="323.2434" y1="336.8329" x2="316.3391" y2="392.9305">
									<stop  offset="0" style="stop-color:#4D0628"/>
									<stop  offset="1" style="stop-color:#6F0B37"/>
								</linearGradient>
								<path style="fill:url(#SVGID_00000168091186315534030480000013015941202403656341_);" d="M270.07,373.92l-1.321,8.9
									c-0.26,1.753,1.098,3.327,2.87,3.327h91.822c1.945,0,3.339-1.876,2.778-3.738l-0.921-3.056L270.07,373.92z"/>
								<path style="opacity:0.33;fill:#000E20;" d="M366.219,382.408l-3.663-12.155c-8.793,0.789-15.886,7.364-17.503,15.893
									h18.388C365.386,386.147,366.78,384.271,366.219,382.408z"/>
								<path style="opacity:0.33;fill:#000E20;" d="M271.884,361.693l-3.135,21.126c-0.26,1.753,1.098,3.327,2.87,3.327h22.569
									C294.188,373.343,284.39,362.837,271.884,361.693z"/>
								<g>
									<path style="fill:#4D0628;" d="M127.55,194.916c0.488-0.495,1.233-0.559,1.871-0.434c0.65,0.14,1.22,0.497,1.651,0.939
										c0.446,0.438,0.74,0.976,0.929,1.537c0.163,0.573,0.227,1.171,0.063,1.821c-0.604-0.313-1.012-0.659-1.399-0.991
										c-0.387-0.324-0.705-0.657-1.015-0.96l-0.893-0.925C128.44,195.593,128.113,195.264,127.55,194.916z"/>
								</g>
							</g>
							<path style="fill:#4D0628;" d="M136.434,216.767c0,0,9.567-12.247,25.555-12.727l1.755,8.164
								c0,0-17.838,10.992-23.902,10.752L136.434,216.767z"/>
						</g>
						<g>
							<g>
								<circle style="fill:#25356D;" cx="271.604" cy="383.419" r="16.518"/>
							</g>
							<g>
								<circle style="fill:#FFFFFF;" cx="271.604" cy="383.419" r="11.895"/>
							</g>
							<circle style="fill:#040D14;" cx="271.604" cy="383.419" r="3.431"/>
						</g>
						<g>
							<g>
								<circle style="fill:#25356D;" cx="361.629" cy="387.253" r="12.684"/>
							</g>
							<g>
								<circle style="fill:#FFFFFF;" cx="361.629" cy="387.253" r="9.134"/>
							</g>
							<circle style="fill:#040D14;" cx="361.629" cy="387.253" r="2.635"/>
						</g>
					</g>
					<g>
						
							<linearGradient id="SVGID_00000096778676399161030660000009311907275713984698_" gradientUnits="userSpaceOnUse" x1="124.4408" y1="325.9397" x2="219.9054" y2="378.0113">
							<stop  offset="0" style="stop-color:#6FB059"/>
							<stop  offset="1" style="stop-color:#007A33"/>
						</linearGradient>
						<path style="fill:url(#SVGID_00000096778676399161030660000009311907275713984698_);" d="M188.312,365.606
							c0,0-1.086-5.049,4.71-7.086c0,0-3.433-0.948-5.303,0.733C186.567,360.287,184.868,362.906,188.312,365.606z"/>
						
							<linearGradient id="SVGID_00000118374199422430285640000009597541104322700468_" gradientUnits="userSpaceOnUse" x1="120.6559" y1="332.8788" x2="216.1205" y2="384.9504">
							<stop  offset="0" style="stop-color:#6FB059"/>
							<stop  offset="1" style="stop-color:#007A33"/>
						</linearGradient>
						<path style="fill:url(#SVGID_00000118374199422430285640000009597541104322700468_);" d="M193.652,368.529
							c0,0,3.432,3.858-0.607,8.487c0,0,3.454-0.867,4.254-3.251C197.791,372.297,197.98,369.181,193.652,368.529z"/>
						
							<linearGradient id="SVGID_00000117640292255811782180000002794956855122336670_" gradientUnits="userSpaceOnUse" x1="118.2775" y1="337.239" x2="213.7421" y2="389.3106">
							<stop  offset="0" style="stop-color:#6FB059"/>
							<stop  offset="1" style="stop-color:#007A33"/>
						</linearGradient>
						<path style="fill:url(#SVGID_00000117640292255811782180000002794956855122336670_);" d="M178.336,365.243
							c0,0,0.54,5.136-5.44,6.543c0,0,3.312,1.309,5.351-0.162C179.502,370.718,181.472,368.295,178.336,365.243z"/>
						
							<linearGradient id="SVGID_00000021080299987558836700000005420020744780191116_" gradientUnits="userSpaceOnUse" x1="122.472" y1="329.5493" x2="217.9366" y2="381.6209">
							<stop  offset="0" style="stop-color:#6FB059"/>
							<stop  offset="1" style="stop-color:#007A33"/>
						</linearGradient>
						<path style="fill:url(#SVGID_00000021080299987558836700000005420020744780191116_);" d="M173.338,361.767
							c0,0-3.001-4.203,1.51-8.374c0,0-3.527,0.493-4.577,2.778C169.625,357.577,169.105,360.656,173.338,361.767z"/>
						
							<linearGradient id="SVGID_00000148649096440513819360000016555093606834128824_" gradientUnits="userSpaceOnUse" x1="130.2581" y1="315.2747" x2="225.7227" y2="367.3463">
							<stop  offset="0" style="stop-color:#6FB059"/>
							<stop  offset="1" style="stop-color:#007A33"/>
						</linearGradient>
						<path style="fill:url(#SVGID_00000148649096440513819360000016555093606834128824_);" d="M209.774,353.892
							c0,0,0.54,5.136-5.44,6.543c0,0,3.312,1.309,5.351-0.162C210.941,359.367,212.91,356.944,209.774,353.892z"/>
						
							<linearGradient id="SVGID_00000054267857728541604530000014389080260391886011_" gradientUnits="userSpaceOnUse" x1="133.8892" y1="308.6177" x2="229.3538" y2="360.6893">
							<stop  offset="0" style="stop-color:#6FB059"/>
							<stop  offset="1" style="stop-color:#007A33"/>
						</linearGradient>
						<path style="fill:url(#SVGID_00000054267857728541604530000014389080260391886011_);" d="M199.588,348.926
							c0,0-3.001-4.203,1.51-8.374c0,0-3.527,0.493-4.577,2.778C195.875,344.737,195.355,347.815,199.588,348.926z"/>
						
							<linearGradient id="SVGID_00000178919186414483341770000014458107924837441208_" gradientUnits="userSpaceOnUse" x1="108.1758" y1="355.7589" x2="203.6404" y2="407.8305">
							<stop  offset="0" style="stop-color:#6FB059"/>
							<stop  offset="1" style="stop-color:#007A33"/>
						</linearGradient>
						<path style="fill:url(#SVGID_00000178919186414483341770000014458107924837441208_);" d="M137.004,366.808
							c0,0,0.169,5.161-5.897,6.134c0,0,3.209,1.544,5.349,0.224C137.773,372.353,139.912,370.078,137.004,366.808z"/>
						
							<linearGradient id="SVGID_00000099655033316051134470000006058661844717554577_" gradientUnits="userSpaceOnUse" x1="109.6573" y1="353.0428" x2="205.1219" y2="405.1144">
							<stop  offset="0" style="stop-color:#6FB059"/>
							<stop  offset="1" style="stop-color:#007A33"/>
						</linearGradient>
						<path style="fill:url(#SVGID_00000099655033316051134470000006058661844717554577_);" d="M155.477,374.302
							c0,0-2.871,4.292-8.367,1.547c0,0,1.708,3.125,4.216,3.299C152.87,379.255,155.933,378.654,155.477,374.302z"/>
						
							<linearGradient id="SVGID_00000142894068389107899210000003442407678198423957_" gradientUnits="userSpaceOnUse" x1="119.3261" y1="335.3167" x2="214.7907" y2="387.3883">
							<stop  offset="0" style="stop-color:#6FB059"/>
							<stop  offset="1" style="stop-color:#007A33"/>
						</linearGradient>
						<path style="fill:url(#SVGID_00000142894068389107899210000003442407678198423957_);" d="M152.44,357.894
							c0,0,0.383-5.15,6.518-5.469c0,0-3.026-1.878-5.294-0.794C152.268,352.299,149.898,354.332,152.44,357.894z"/>
						
							<linearGradient id="SVGID_00000090283940777521966660000007102465347909288634_" gradientUnits="userSpaceOnUse" x1="118.9375" y1="336.0291" x2="214.4021" y2="388.1007">
							<stop  offset="0" style="stop-color:#6FB059"/>
							<stop  offset="1" style="stop-color:#007A33"/>
						</linearGradient>
						<path style="fill:url(#SVGID_00000090283940777521966660000007102465347909288634_);" d="M135.947,340.552
							c0,0,0.54,5.136-5.44,6.543c0,0,3.312,1.309,5.351-0.162C137.114,346.027,139.083,343.605,135.947,340.552z"/>
						
							<linearGradient id="SVGID_00000159454215239278060300000003242588767119456446_" gradientUnits="userSpaceOnUse" x1="122.2418" y1="329.9713" x2="217.7063" y2="382.0429">
							<stop  offset="0" style="stop-color:#6FB059"/>
							<stop  offset="1" style="stop-color:#007A33"/>
						</linearGradient>
						<path style="fill:url(#SVGID_00000159454215239278060300000003242588767119456446_);" d="M209.16,381.854
							c0,0-3.001-4.203,1.51-8.374c0,0-3.527,0.493-4.577,2.778C205.448,377.665,204.927,380.743,209.16,381.854z"/>
						
							<linearGradient id="SVGID_00000164497736418327210630000000424611095584765583_" gradientUnits="userSpaceOnUse" x1="124.5638" y1="325.7142" x2="220.0284" y2="377.7858">
							<stop  offset="0" style="stop-color:#6FB059"/>
							<stop  offset="1" style="stop-color:#007A33"/>
						</linearGradient>
						<path style="fill:url(#SVGID_00000164497736418327210630000000424611095584765583_);" d="M226.454,376.731
							c0,0-0.24,5.158-6.364,5.648c0,0,3.077,1.793,5.314,0.646C226.782,382.319,229.094,380.221,226.454,376.731z"/>
					</g>
				</g>
				<path style="fill:#006320;" d="M366.062,400.741c0.043-0.038,0.083-0.079,0.124-0.119c-0.073,0.16-0.147,0.321-0.24,0.482
					C365.988,400.989,366.026,400.868,366.062,400.741z"/>
			</g>
			<g>
				
					<linearGradient id="SVGID_00000082340311721655916270000001275290022565385641_" gradientUnits="userSpaceOnUse" x1="255.6485" y1="389.5504" x2="251.3092" y2="481.399">
					<stop  offset="0" style="stop-color:#6FB059"/>
					<stop  offset="1" style="stop-color:#007A33"/>
				</linearGradient>
				<path style="fill:url(#SVGID_00000082340311721655916270000001275290022565385641_);" d="M369.193,395.694
					c0.249,0.914,0.348,1.726,0.352,2.451c-0.442-0.642-0.864-1.046-0.864-1.046c0.17,0.624,0.27,1.2,0.319,1.735
					c-0.27-0.407-0.527-0.713-0.708-0.91c-0.544-1.311-1.506-2.229-1.506-2.229c0.249,0.914,0.348,1.726,0.352,2.451
					c-0.442-0.642-0.864-1.046-0.864-1.046c0.17,0.624,0.27,1.2,0.319,1.735c-0.27-0.407-0.527-0.713-0.708-0.91
					c-0.544-1.311-1.506-2.229-1.506-2.229c0.249,0.914,0.348,1.726,0.352,2.451c-0.442-0.642-0.864-1.046-0.864-1.046
					c0.17,0.624,0.27,1.2,0.319,1.735c-0.27-0.407-0.527-0.713-0.708-0.91c-0.544-1.311-1.506-2.229-1.506-2.229
					c0.249,0.914,0.348,1.726,0.352,2.451c-0.442-0.642-0.864-1.046-0.864-1.046c0.17,0.624,0.27,1.2,0.319,1.735
					c-0.27-0.407-0.527-0.713-0.708-0.91c-0.544-1.311-1.506-2.229-1.506-2.229c0.249,0.914,0.348,1.726,0.352,2.451
					c-0.442-0.642-0.864-1.046-0.864-1.046c0.17,0.624,0.27,1.2,0.319,1.735c-0.27-0.407-0.527-0.713-0.708-0.91
					c-0.544-1.311-1.506-2.229-1.506-2.229c0.249,0.914,0.348,1.726,0.352,2.451c-0.442-0.642-0.864-1.046-0.864-1.046
					c0.17,0.624,0.27,1.2,0.319,1.735c-0.27-0.407-0.527-0.713-0.708-0.91c-0.544-1.311-1.506-2.229-1.506-2.229
					c0.249,0.914,0.348,1.726,0.352,2.451c-0.442-0.642-0.864-1.046-0.864-1.046c0.17,0.624,0.27,1.2,0.319,1.735
					c-0.27-0.407-0.527-0.713-0.708-0.91c-0.544-1.311-1.506-2.229-1.506-2.229c0.249,0.914,0.348,1.726,0.352,2.451
					c-0.442-0.642-0.864-1.046-0.864-1.046c0.17,0.624,0.27,1.2,0.319,1.735c-0.27-0.407-0.527-0.713-0.708-0.91
					c-0.544-1.311-1.506-2.229-1.506-2.229c0.249,0.914,0.348,1.726,0.352,2.451c-0.442-0.642-0.864-1.047-0.864-1.047
					c0.17,0.624,0.27,1.2,0.319,1.735c-0.27-0.407-0.527-0.713-0.708-0.91c-0.544-1.311-1.506-2.229-1.506-2.229
					c0.249,0.914,0.348,1.726,0.352,2.451c-0.442-0.642-0.864-1.047-0.864-1.047c0.17,0.624,0.27,1.2,0.319,1.735
					c-0.27-0.407-0.527-0.713-0.708-0.91c-0.544-1.311-1.506-2.229-1.506-2.229c0.249,0.914,0.348,1.726,0.352,2.451
					c-0.442-0.642-0.864-1.047-0.864-1.047c0.17,0.624,0.27,1.2,0.319,1.735c-0.269-0.407-0.527-0.713-0.708-0.91
					c-0.544-1.311-1.507-2.229-1.507-2.229c0.267,0.98,0.365,1.846,0.354,2.609c-0.299-0.306-0.668-0.61-1.14-0.904
					c0,0,0.151,0.47,0.185,1.177c-0.001-0.001-0.002-0.002-0.003-0.003c-0.164-0.845-0.742-1.745-2.077-2.578
					c0,0,0.368,1.131,0.081,2.548c-0.35-0.322-0.814-0.613-1.423-0.851c-0.438-0.659-1.223-1.249-2.557-1.625
					c0,0,0.887,1.308,0.798,3.117c-0.709-1.074-1.68-1.799-1.68-1.799c0.194,0.56,0.298,1.072,0.363,1.558
					c-0.688-0.943-1.527-1.558-1.527-1.558c0.306,0.885,0.419,1.664,0.424,2.367c-0.332-0.312-0.576-0.493-0.576-0.493
					c0.16,0.463,0.257,0.892,0.327,1.304h-0.183c-0.124-0.154-0.249-0.318-0.372-0.449c-0.603-1.575-2.177-2.73-2.177-2.73
					c0.329,0.953,0.439,1.786,0.425,2.529c-0.699-0.992-1.588-1.645-1.588-1.645c0.174,0.503,0.273,0.965,0.342,1.408
					c-0.288-0.263-0.494-0.417-0.494-0.417c0.159,0.46,0.268,0.893,0.34,1.304h-0.609c-0.436-1.8-2.318-3.178-2.318-3.178
					c0.194,0.56,0.298,1.072,0.363,1.558c-0.688-0.943-1.527-1.558-1.527-1.558c0.306,0.885,0.419,1.664,0.424,2.367
					c-0.332-0.312-0.576-0.492-0.576-0.492c0.16,0.463,0.257,0.892,0.327,1.304h-0.175c-0.228-0.283-0.458-0.54-0.665-0.739
					c-0.688-0.941-1.526-1.555-1.526-1.555c0.039,0.112,0.057,0.212,0.09,0.32c-0.618-0.741-1.253-1.205-1.253-1.205
					c0.429,1.243,0.495,2.287,0.375,3.178h-0.031c-0.289-0.265-0.497-0.419-0.497-0.419c0.041,0.119,0.07,0.231,0.105,0.347
					c-0.112-0.135-0.223-0.26-0.332-0.376c-0.603-1.575-2.177-2.73-2.177-2.73c0.329,0.953,0.439,1.786,0.425,2.529
					c-0.699-0.992-1.588-1.645-1.588-1.645c0.174,0.503,0.273,0.965,0.342,1.408c-0.288-0.263-0.494-0.417-0.494-0.417
					c0.159,0.46,0.268,0.893,0.34,1.304h-0.61c-0.436-1.8-2.318-3.178-2.318-3.178c0.329,0.953,0.439,1.786,0.425,2.529
					c-0.699-0.992-1.589-1.645-1.589-1.645c0.174,0.503,0.273,0.965,0.342,1.408c-0.288-0.263-0.494-0.417-0.494-0.417
					c0.159,0.46,0.268,0.893,0.34,1.304h-0.411c-0.692-1.344-1.968-2.294-1.968-2.294c0.194,0.56,0.298,1.072,0.363,1.558
					c-0.688-0.943-1.527-1.558-1.527-1.558c0.295,0.855,0.408,1.61,0.421,2.294h-0.077c-0.288-0.263-0.496-0.419-0.496-0.419
					c0.05,0.145,0.082,0.28,0.122,0.419h-0.215c-0.435-1.8-2.311-3.178-2.311-3.178c0.194,0.56,0.298,1.072,0.363,1.558
					c-0.688-0.943-1.527-1.558-1.527-1.558c0.306,0.885,0.419,1.664,0.424,2.367c-0.332-0.312-0.576-0.492-0.576-0.492
					c0.16,0.463,0.257,0.892,0.327,1.304h-0.167c-0.64-0.795-1.324-1.304-1.324-1.304c0.087,0.251,0.158,0.494,0.218,0.73
					c-0.706-1.034-1.641-1.721-1.641-1.721c0.039,0.112,0.057,0.212,0.09,0.321c-0.618-0.741-1.253-1.205-1.253-1.205
					c0.429,1.243,0.495,2.287,0.375,3.178h-0.031c-0.108-0.099-0.209-0.189-0.287-0.253c-0.539-1.674-2.249-2.925-2.249-2.925
					c0.194,0.56,0.298,1.072,0.363,1.558c-0.688-0.943-1.527-1.558-1.527-1.558c0.223,0.645,0.34,1.232,0.395,1.779
					c-0.71-1.067-1.682-1.779-1.682-1.779c0.289,0.838,0.406,1.58,0.424,2.254c-0.265-0.239-0.453-0.379-0.453-0.379
					c0.16,0.463,0.258,0.892,0.329,1.304h-0.286c-0.641-0.796-1.329-1.304-1.329-1.304c0.011,0.031,0.017,0.059,0.027,0.09
					c-0.582-0.666-1.145-1.081-1.145-1.081c0.12,0.349,0.211,0.681,0.28,1.001c-0.714-1.125-1.75-1.885-1.75-1.885
					c0.394,1.142,0.485,2.119,0.406,2.963c-0.152-0.128-0.253-0.204-0.253-0.204c0.05,0.144,0.087,0.281,0.127,0.419h-0.281
					c-0.06-0.074-0.118-0.158-0.178-0.227c-0.53-1.687-2.256-2.951-2.256-2.951c0.143,0.415,0.238,0.804,0.309,1.178
					c-0.611-0.724-1.23-1.178-1.23-1.178c0.34,0.985,0.449,1.844,0.425,2.606c-0.45-0.459-0.82-0.731-0.82-0.731
					c0.145,0.42,0.245,0.815,0.316,1.194c-0.033-0.04-0.066-0.08-0.099-0.118c-0.53-1.687-2.256-2.951-2.256-2.951
					c0.355,1.028,0.464,1.923,0.425,2.707c-0.712-1.092-1.712-1.823-1.712-1.823c0.157,0.454,0.253,0.875,0.324,1.28
					c-0.212-0.185-0.353-0.29-0.353-0.29c0.16,0.463,0.257,0.891,0.328,1.304h-0.416c-0.435-1.8-2.317-3.178-2.317-3.178
					c0.27,0.781,0.392,1.482,0.423,2.121c-0.709-1.255-1.893-2.121-1.893-2.121c0.266,0.769,0.389,1.461,0.423,2.093
					c-0.161-0.137-0.269-0.218-0.269-0.218c0.117,0.338,0.2,0.659,0.269,0.97c-0.008,0.117-0.031,0.222-0.046,0.333h-0.377
					c-0.06-0.074-0.118-0.158-0.178-0.227c-0.53-1.687-2.256-2.951-2.256-2.951c0.143,0.415,0.238,0.804,0.309,1.178
					c-0.611-0.724-1.23-1.178-1.23-1.178c0.34,0.985,0.449,1.844,0.425,2.606c-0.45-0.459-0.82-0.731-0.82-0.731
					c0.145,0.42,0.245,0.815,0.316,1.194c-0.613-0.731-1.237-1.194-1.237-1.194c0.011,0.031,0.017,0.059,0.027,0.09
					c-0.582-0.666-1.145-1.081-1.145-1.081c0.223,0.645,0.34,1.232,0.395,1.778c-0.71-1.067-1.682-1.778-1.682-1.778
					c0.289,0.838,0.406,1.58,0.424,2.254c-0.265-0.239-0.453-0.38-0.453-0.38c0.05,0.145,0.082,0.28,0.123,0.419h-0.21
					c-0.435-1.8-2.317-3.178-2.317-3.178c0.396,1.148,0.486,2.128,0.405,2.975c-0.711-1.239-1.875-2.091-1.875-2.091
					c0.134,0.387,0.228,0.753,0.298,1.104c-0.089-0.072-0.145-0.113-0.145-0.113c0.115,0.332,0.197,0.647,0.265,0.953
					c0.009,0.123,0,0.232,0.003,0.35h-0.539c-0.435-1.8-2.317-3.178-2.317-3.178c0.282,0.816,0.4,1.543,0.423,2.204
					c-0.645-0.806-1.344-1.319-1.344-1.319c0.209,0.606,0.32,1.158,0.381,1.677c-0.429-0.431-0.776-0.687-0.776-0.687
					c0.159,0.461,0.265,0.893,0.335,1.304h-0.393c-0.692-1.347-1.98-2.294-1.98-2.294c0.068,0.195,0.106,0.375,0.157,0.561
					c-0.671-0.879-1.444-1.445-1.444-1.445c0.417,1.209,0.492,2.229,0.387,3.105c-0.245-0.219-0.416-0.346-0.416-0.346
					c0.05,0.144,0.087,0.281,0.127,0.419h-0.092c-0.061-0.076-0.122-0.157-0.183-0.228c-0.53-1.687-2.256-2.951-2.256-2.951
					c0.27,0.781,0.392,1.482,0.423,2.121c-0.709-1.255-1.893-2.121-1.893-2.121c0.266,0.769,0.389,1.461,0.423,2.093
					c-0.161-0.137-0.269-0.218-0.269-0.218c0.117,0.338,0.2,0.659,0.269,0.97c-0.008,0.117-0.031,0.222-0.046,0.333h-0.364
					c-0.641-0.796-1.33-1.304-1.33-1.304c0.011,0.031,0.017,0.059,0.027,0.09c-0.391-0.448-0.769-0.779-0.978-0.949
					c-0.561-0.628-1.088-1.016-1.088-1.016c0.223,0.645,0.34,1.232,0.395,1.779c-0.71-1.067-1.682-1.779-1.682-1.779
					c0.192,0.555,0.296,1.062,0.362,1.545c-0.685-0.932-1.508-1.545-1.508-1.545c0.308,0.892,0.421,1.676,0.424,2.384
					c-0.34-0.321-0.593-0.509-0.593-0.509c0.011,0.031,0.017,0.059,0.027,0.09c-0.582-0.666-1.145-1.081-1.145-1.081
					c0.12,0.349,0.211,0.681,0.28,1.001c-0.714-1.125-1.75-1.885-1.75-1.885c0.394,1.142,0.485,2.119,0.406,2.963
					c-0.152-0.128-0.253-0.204-0.253-0.204c0.05,0.144,0.087,0.281,0.127,0.419h-0.281c-0.06-0.074-0.118-0.158-0.178-0.227
					c-0.53-1.687-2.256-2.951-2.256-2.951c0.143,0.415,0.238,0.804,0.309,1.178c-0.611-0.724-1.23-1.178-1.23-1.178
					c0.34,0.985,0.449,1.844,0.425,2.606c-0.45-0.459-0.82-0.731-0.82-0.731c0.145,0.42,0.245,0.815,0.316,1.194
					c-0.033-0.04-0.066-0.08-0.099-0.118c-0.53-1.687-2.256-2.951-2.256-2.951c0.355,1.028,0.464,1.923,0.425,2.707
					c-0.712-1.092-1.712-1.823-1.712-1.823c0.157,0.454,0.253,0.875,0.324,1.28c-0.212-0.185-0.353-0.29-0.353-0.29
					c0.16,0.463,0.257,0.891,0.328,1.304h-0.416c-0.436-1.8-2.317-3.178-2.317-3.178c0.27,0.781,0.392,1.482,0.423,2.121
					c-0.709-1.255-1.893-2.121-1.893-2.121c0.266,0.769,0.389,1.461,0.423,2.093c-0.161-0.137-0.269-0.218-0.269-0.218
					c0.117,0.338,0.2,0.659,0.269,0.97c-0.008,0.117-0.031,0.222-0.046,0.333h-0.377c-0.06-0.074-0.118-0.158-0.178-0.227
					c-0.53-1.687-2.256-2.951-2.256-2.951c0.143,0.415,0.238,0.804,0.309,1.178c-0.611-0.724-1.23-1.178-1.23-1.178
					c0.34,0.985,0.449,1.844,0.425,2.606c-0.45-0.459-0.82-0.731-0.82-0.731c0.145,0.42,0.245,0.815,0.316,1.194
					c-0.613-0.731-1.237-1.194-1.237-1.194c0.011,0.031,0.017,0.059,0.027,0.09c-0.582-0.666-1.145-1.081-1.145-1.081
					c0.223,0.645,0.34,1.232,0.395,1.778c-0.71-1.067-1.682-1.778-1.682-1.778c0.289,0.838,0.406,1.58,0.424,2.254
					c-0.265-0.239-0.453-0.38-0.453-0.38c0.05,0.145,0.082,0.28,0.123,0.419h-0.21c-0.435-1.8-2.317-3.178-2.317-3.178
					c0.396,1.148,0.486,2.128,0.405,2.975c-0.711-1.239-1.875-2.091-1.875-2.091c0.134,0.387,0.228,0.753,0.298,1.104
					c-0.089-0.072-0.145-0.113-0.145-0.113c0.115,0.332,0.197,0.647,0.265,0.953c0.009,0.123,0,0.232,0.003,0.35h-0.539
					c-0.435-1.8-2.317-3.178-2.317-3.178c0.282,0.816,0.401,1.543,0.423,2.204c-0.646-0.806-1.344-1.319-1.344-1.319
					c0.209,0.606,0.32,1.158,0.381,1.677c-0.429-0.431-0.776-0.687-0.776-0.687c0.159,0.461,0.265,0.893,0.335,1.304h-0.393
					c-0.692-1.347-1.98-2.294-1.98-2.294c0.068,0.195,0.106,0.375,0.157,0.561c-0.671-0.879-1.444-1.445-1.444-1.445
					c0.417,1.209,0.492,2.229,0.387,3.105c-0.245-0.219-0.416-0.346-0.416-0.346c0.05,0.144,0.087,0.281,0.127,0.419h-0.092
					c-0.061-0.076-0.122-0.157-0.183-0.228c-0.53-1.687-2.256-2.951-2.256-2.951c0.27,0.781,0.392,1.482,0.423,2.121
					c-0.709-1.255-1.893-2.121-1.893-2.121c0.266,0.769,0.389,1.461,0.423,2.093c-0.162-0.137-0.269-0.218-0.269-0.218
					c0.117,0.338,0.2,0.659,0.269,0.97c-0.008,0.117-0.031,0.222-0.046,0.333h-0.363c-0.641-0.796-1.33-1.304-1.33-1.304
					c0.011,0.031,0.017,0.059,0.027,0.09c-0.391-0.448-0.769-0.779-0.978-0.949c-0.561-0.628-1.088-1.016-1.088-1.016
					c0.223,0.645,0.34,1.232,0.395,1.779c-0.71-1.067-1.682-1.779-1.682-1.779c0.192,0.555,0.296,1.062,0.362,1.544
					c-0.685-0.932-1.508-1.544-1.508-1.544c0.308,0.892,0.421,1.676,0.424,2.384c-0.34-0.322-0.593-0.509-0.593-0.509
					c0.011,0.031,0.017,0.059,0.027,0.09c-0.582-0.666-1.145-1.081-1.145-1.081c0.12,0.349,0.211,0.681,0.28,1.001
					c-0.714-1.126-1.75-1.885-1.75-1.885c0.394,1.142,0.485,2.119,0.406,2.963c-0.152-0.128-0.253-0.204-0.253-0.204
					c0.05,0.144,0.087,0.281,0.127,0.419h-0.281c-0.06-0.074-0.118-0.158-0.178-0.227c-0.53-1.687-2.256-2.951-2.256-2.951
					c0.143,0.415,0.238,0.804,0.309,1.178c-0.611-0.725-1.23-1.178-1.23-1.178c0.34,0.985,0.449,1.844,0.425,2.606
					c-0.45-0.459-0.82-0.731-0.82-0.731c0.145,0.42,0.245,0.815,0.316,1.194c-0.033-0.04-0.066-0.08-0.099-0.118
					c-0.53-1.687-2.256-2.951-2.256-2.951c0.355,1.028,0.464,1.923,0.425,2.708c-0.712-1.092-1.712-1.823-1.712-1.823
					c0.157,0.454,0.253,0.875,0.324,1.28c-0.212-0.185-0.353-0.289-0.353-0.289c0.16,0.463,0.257,0.891,0.328,1.304h-0.416
					c-0.435-1.8-2.317-3.178-2.317-3.178c0.27,0.781,0.392,1.482,0.423,2.121c-0.709-1.255-1.893-2.121-1.893-2.121
					c0.266,0.769,0.389,1.461,0.423,2.092c-0.161-0.137-0.269-0.218-0.269-0.218c0.117,0.338,0.2,0.658,0.269,0.97
					c-0.008,0.117-0.031,0.222-0.046,0.334h-0.377c-0.06-0.074-0.117-0.158-0.178-0.227c-0.53-1.687-2.256-2.951-2.256-2.951
					c0.143,0.415,0.238,0.804,0.309,1.178c-0.611-0.724-1.23-1.178-1.23-1.178c0.34,0.985,0.449,1.844,0.425,2.606
					c-0.45-0.459-0.82-0.731-0.82-0.731c0.145,0.42,0.245,0.815,0.316,1.194c-0.613-0.731-1.237-1.194-1.237-1.194
					c0.011,0.031,0.017,0.059,0.027,0.09c-0.582-0.666-1.145-1.081-1.145-1.081c0.223,0.645,0.34,1.232,0.395,1.779
					c-0.71-1.067-1.682-1.779-1.682-1.779c0.289,0.838,0.406,1.58,0.424,2.254c-0.265-0.239-0.453-0.38-0.453-0.38
					c0.05,0.145,0.082,0.28,0.123,0.419h-0.21c-0.435-1.8-2.317-3.178-2.317-3.178c0.396,1.148,0.486,2.128,0.405,2.975
					c-0.71-1.239-1.875-2.091-1.875-2.091c0.134,0.387,0.228,0.753,0.298,1.104c-0.089-0.072-0.145-0.113-0.145-0.113
					c0.115,0.332,0.197,0.646,0.265,0.952c0.009,0.123,0,0.233,0.003,0.351h-0.538c-0.435-1.8-2.317-3.178-2.317-3.178
					c0.282,0.816,0.4,1.543,0.423,2.204c-0.645-0.806-1.344-1.32-1.344-1.32c0.209,0.606,0.32,1.158,0.381,1.677
					c-0.429-0.431-0.776-0.687-0.776-0.687c0.159,0.461,0.265,0.893,0.335,1.304h-0.393c-0.692-1.347-1.98-2.294-1.98-2.294
					c0.068,0.196,0.106,0.375,0.157,0.561c-0.671-0.879-1.444-1.445-1.444-1.445c0.417,1.208,0.492,2.229,0.387,3.105
					c-0.245-0.219-0.416-0.346-0.416-0.346c0.05,0.144,0.087,0.281,0.127,0.419h-0.092c-0.061-0.076-0.122-0.157-0.183-0.227
					c-0.53-1.687-2.256-2.951-2.256-2.951c0.27,0.781,0.392,1.482,0.423,2.121c-0.709-1.255-1.893-2.121-1.893-2.121
					c0.266,0.769,0.389,1.461,0.423,2.093c-0.161-0.137-0.269-0.218-0.269-0.218c0.117,0.338,0.2,0.658,0.269,0.97
					c-0.008,0.117-0.031,0.222-0.046,0.334h-0.364c-0.641-0.796-1.33-1.304-1.33-1.304c0.011,0.031,0.017,0.059,0.027,0.09
					c-0.391-0.448-0.769-0.779-0.978-0.949c-0.561-0.628-1.088-1.016-1.088-1.016c0.223,0.645,0.34,1.232,0.395,1.779
					c-0.71-1.067-1.682-1.779-1.682-1.779c0.192,0.555,0.296,1.062,0.362,1.544c-0.685-0.932-1.508-1.544-1.508-1.544
					c0.308,0.892,0.421,1.676,0.424,2.384c-0.34-0.322-0.593-0.509-0.593-0.509c0.011,0.031,0.017,0.059,0.027,0.09
					c-0.582-0.666-1.145-1.081-1.145-1.081c0.12,0.349,0.211,0.681,0.28,1.001c-0.714-1.125-1.75-1.885-1.75-1.885
					c0.394,1.142,0.485,2.119,0.406,2.963c-0.152-0.128-0.253-0.204-0.253-0.204c0.05,0.144,0.087,0.281,0.127,0.419h-0.281
					c-0.06-0.074-0.118-0.158-0.178-0.227c-0.53-1.687-2.256-2.951-2.256-2.951c0.143,0.415,0.238,0.804,0.309,1.178
					c-0.611-0.724-1.23-1.178-1.23-1.178c0.34,0.985,0.449,1.844,0.425,2.606c-0.45-0.459-0.82-0.731-0.82-0.731
					c0.145,0.42,0.245,0.815,0.316,1.194c-0.033-0.04-0.066-0.08-0.099-0.118c-0.53-1.687-2.256-2.951-2.256-2.951
					c0.355,1.028,0.464,1.923,0.425,2.707c-0.712-1.092-1.712-1.823-1.712-1.823c0.157,0.454,0.253,0.875,0.324,1.28
					c-0.212-0.185-0.353-0.29-0.353-0.29c0.16,0.463,0.257,0.891,0.328,1.304h-0.416c-0.436-1.8-2.317-3.178-2.317-3.178
					c0.27,0.781,0.392,1.482,0.423,2.121c-0.709-1.255-1.893-2.121-1.893-2.121c0.266,0.769,0.389,1.461,0.423,2.093
					c-0.161-0.137-0.269-0.218-0.269-0.218c0.117,0.338,0.2,0.659,0.269,0.97c-0.008,0.117-0.031,0.222-0.046,0.333h-0.377
					c-0.06-0.074-0.118-0.158-0.178-0.227c-0.53-1.687-2.256-2.951-2.256-2.951c0.143,0.415,0.238,0.804,0.309,1.178
					c-0.611-0.724-1.23-1.178-1.23-1.178c0.34,0.985,0.449,1.844,0.425,2.606c-0.45-0.459-0.82-0.731-0.82-0.731
					c0.145,0.42,0.245,0.815,0.316,1.194c-0.613-0.731-1.237-1.194-1.237-1.194c0.011,0.031,0.017,0.059,0.027,0.09
					c-0.582-0.666-1.145-1.081-1.145-1.081c0.223,0.645,0.34,1.232,0.395,1.778c-0.71-1.067-1.682-1.778-1.682-1.778
					c0.289,0.838,0.406,1.58,0.424,2.254c-0.265-0.239-0.453-0.38-0.453-0.38c0.05,0.145,0.082,0.28,0.122,0.419h-0.21
					c-0.435-1.8-2.317-3.178-2.317-3.178c0.396,1.148,0.486,2.128,0.405,2.975c-0.711-1.239-1.875-2.091-1.875-2.091
					c0.134,0.387,0.228,0.753,0.298,1.104c-0.089-0.072-0.145-0.113-0.145-0.113c0.115,0.332,0.197,0.647,0.265,0.953
					c0.009,0.123,0,0.232,0.003,0.35h-0.539c-0.435-1.8-2.317-3.178-2.317-3.178c0.282,0.816,0.4,1.543,0.423,2.204
					c-0.645-0.806-1.344-1.319-1.344-1.319c0.209,0.606,0.32,1.158,0.381,1.677c-0.429-0.431-0.776-0.687-0.776-0.687
					c0.159,0.461,0.265,0.893,0.335,1.304h-0.393c-0.692-1.347-1.98-2.294-1.98-2.294c0.068,0.195,0.106,0.375,0.157,0.561
					c-0.671-0.879-1.444-1.445-1.444-1.445c0.417,1.209,0.492,2.229,0.387,3.105c-0.245-0.219-0.416-0.346-0.416-0.346
					c0.05,0.144,0.087,0.281,0.127,0.419h-0.092c-0.061-0.076-0.122-0.157-0.183-0.228c-0.53-1.687-2.256-2.951-2.256-2.951
					c0.143,0.414,0.24,0.802,0.308,1.173c24.477,37.379,66.719,62.077,114.735,62.077h0c48.464,0,91.052-25.155,115.422-63.12
					C369.956,396.427,369.193,395.694,369.193,395.694z"/>
				<path style="fill:#006320;" d="M371.611,395.75c0.006-0.009,0.011-0.018,0.017-0.027c-0.013-0.013-0.029-0.028-0.029-0.028
					C371.605,395.714,371.606,395.731,371.611,395.75z"/>
			</g>
		</g>
	</g>
</g>
</svg>
